<mxfile host="65bd71144e">
    <diagram id="WlyAIyUOdPtycKj1R1WJ" name="第 1 页">
        <mxGraphModel dx="1042" dy="478" grid="1" gridSize="10" guides="1" tooltips="1" connect="1" arrows="1" fold="1" page="1" pageScale="1" pageWidth="827" pageHeight="1169" math="0" shadow="0">
            <root>
                <mxCell id="0"/>
                <mxCell id="1" parent="0"/>
                <mxCell id="2" value="&lt;span style=&quot;color: rgba(0 , 0 , 0 , 0) ; font-family: monospace ; font-size: 0px&quot;&gt;%3CmxGraphModel%3E%3Croot%3E%3CmxCell%20id%3D%220%22%2F%3E%3CmxCell%20id%3D%221%22%20parent%3D%220%22%2F%3E%3CmxCell%20id%3D%222%22%20value%3D%22A%22%20style%3D%22html%3D1%3B%22%20vertex%3D%221%22%20parent%3D%221%22%3E%3CmxGeometry%20x%3D%22200%22%20y%3D%22200%22%20width%3D%2230%22%20height%3D%2230%22%20as%3D%22geometry%22%2F%3E%3C%2FmxCell%3E%3C%2Froot%3E%3C%2FmxGraphModel%3E&lt;/span&gt;" style="rounded=0;whiteSpace=wrap;html=1;glass=0;metaEdit=0;dropTarget=0;movable=0;" parent="1" vertex="1">
                    <mxGeometry x="-10" y="155" width="630" height="715" as="geometry"/>
                </mxCell>
                <mxCell id="ecS3ZJke_SLgCDpdlSXE-2" value="Use 依赖&lt;br&gt;Dependency" style="endArrow=open;endSize=12;dashed=1;html=1;" parent="1" edge="1">
                    <mxGeometry width="160" relative="1" as="geometry">
                        <mxPoint x="230" y="214.5" as="sourcePoint"/>
                        <mxPoint x="390" y="214.5" as="targetPoint"/>
                    </mxGeometry>
                </mxCell>
                <mxCell id="ecS3ZJke_SLgCDpdlSXE-5" value="A" style="html=1;" parent="1" vertex="1">
                    <mxGeometry x="200" y="200" width="30" height="30" as="geometry"/>
                </mxCell>
                <mxCell id="ecS3ZJke_SLgCDpdlSXE-6" value="B" style="html=1;" parent="1" vertex="1">
                    <mxGeometry x="390" y="200" width="30" height="30" as="geometry"/>
                </mxCell>
                <mxCell id="ecS3ZJke_SLgCDpdlSXE-19" value="" style="group" parent="1" vertex="1" connectable="0">
                    <mxGeometry x="30" y="270" width="270" height="300" as="geometry"/>
                </mxCell>
                <mxCell id="ecS3ZJke_SLgCDpdlSXE-8" value="" style="rounded=0;whiteSpace=wrap;html=1;fillColor=#666666;" parent="ecS3ZJke_SLgCDpdlSXE-19" vertex="1">
                    <mxGeometry width="270" height="260" as="geometry"/>
                </mxCell>
                <mxCell id="ecS3ZJke_SLgCDpdlSXE-10" value="A" style="html=1;" parent="ecS3ZJke_SLgCDpdlSXE-19" vertex="1">
                    <mxGeometry x="44.06" y="20" width="30" height="30" as="geometry"/>
                </mxCell>
                <mxCell id="ecS3ZJke_SLgCDpdlSXE-11" value="B" style="html=1;" parent="ecS3ZJke_SLgCDpdlSXE-19" vertex="1">
                    <mxGeometry x="195.935" y="20" width="30" height="30" as="geometry"/>
                </mxCell>
                <mxCell id="ecS3ZJke_SLgCDpdlSXE-15" value="" style="rounded=0;whiteSpace=wrap;html=1;fillColor=#808080;" parent="ecS3ZJke_SLgCDpdlSXE-19" vertex="1">
                    <mxGeometry x="21.313124999999992" y="70" width="227.37375000000003" height="160" as="geometry"/>
                </mxCell>
                <mxCell id="ecS3ZJke_SLgCDpdlSXE-16" value="A" style="html=1;" parent="ecS3ZJke_SLgCDpdlSXE-19" vertex="1">
                    <mxGeometry x="44.06" y="100" width="30" height="30" as="geometry"/>
                </mxCell>
                <mxCell id="ecS3ZJke_SLgCDpdlSXE-17" value="B" style="html=1;" parent="ecS3ZJke_SLgCDpdlSXE-19" vertex="1">
                    <mxGeometry x="195.935" y="100" width="30" height="30" as="geometry"/>
                </mxCell>
                <mxCell id="ecS3ZJke_SLgCDpdlSXE-18" value="&lt;font style=&quot;font-size: 14px&quot;&gt;聚合&lt;/font&gt;" style="endArrow=open;html=1;endSize=12;startArrow=diamondThin;startSize=14;startFill=0;edgeStyle=orthogonalEdgeStyle;align=left;verticalAlign=bottom;exitX=1;exitY=0.5;exitDx=0;exitDy=0;" parent="ecS3ZJke_SLgCDpdlSXE-19" source="ecS3ZJke_SLgCDpdlSXE-16" edge="1">
                    <mxGeometry x="-0.2963" y="-5" relative="1" as="geometry">
                        <mxPoint x="77.81" y="150" as="sourcePoint"/>
                        <mxPoint x="195.935" y="115" as="targetPoint"/>
                        <Array as="points">
                            <mxPoint x="150.31" y="115"/>
                            <mxPoint x="150.31" y="115"/>
                        </Array>
                        <mxPoint as="offset"/>
                    </mxGeometry>
                </mxCell>
                <mxCell id="ecS3ZJke_SLgCDpdlSXE-21" value="" style="rounded=0;whiteSpace=wrap;html=1;fillColor=#999999;" parent="ecS3ZJke_SLgCDpdlSXE-19" vertex="1">
                    <mxGeometry x="33.75" y="150" width="206.25" height="70" as="geometry"/>
                </mxCell>
                <mxCell id="ecS3ZJke_SLgCDpdlSXE-22" value="A" style="html=1;" parent="ecS3ZJke_SLgCDpdlSXE-19" vertex="1">
                    <mxGeometry x="44.059999999999995" y="170" width="30" height="30" as="geometry"/>
                </mxCell>
                <mxCell id="ecS3ZJke_SLgCDpdlSXE-23" value="B" style="html=1;" parent="ecS3ZJke_SLgCDpdlSXE-19" vertex="1">
                    <mxGeometry x="195.935" y="170" width="30" height="30" as="geometry"/>
                </mxCell>
                <mxCell id="ecS3ZJke_SLgCDpdlSXE-24" value="组合" style="endArrow=open;html=1;endSize=12;startArrow=diamondThin;startSize=14;startFill=1;edgeStyle=orthogonalEdgeStyle;align=left;verticalAlign=bottom;fontSize=14;entryX=0;entryY=0.5;entryDx=0;entryDy=0;" parent="ecS3ZJke_SLgCDpdlSXE-19" source="ecS3ZJke_SLgCDpdlSXE-22" target="ecS3ZJke_SLgCDpdlSXE-23" edge="1">
                    <mxGeometry x="-0.2461" relative="1" as="geometry">
                        <mxPoint x="111.9" y="180" as="sourcePoint"/>
                        <mxPoint x="184.9" y="185" as="targetPoint"/>
                        <mxPoint as="offset"/>
                    </mxGeometry>
                </mxCell>
                <mxCell id="ecS3ZJke_SLgCDpdlSXE-46" value="&lt;font color=&quot;#e6e6e6&quot;&gt;关联&lt;/font&gt;" style="endArrow=open;endFill=1;endSize=12;html=1;fontSize=17;fontColor=#FF33FF;" parent="ecS3ZJke_SLgCDpdlSXE-19" edge="1">
                    <mxGeometry width="160" relative="1" as="geometry">
                        <mxPoint x="74.06" y="34.47" as="sourcePoint"/>
                        <mxPoint x="200" y="34" as="targetPoint"/>
                    </mxGeometry>
                </mxCell>
                <mxCell id="ecS3ZJke_SLgCDpdlSXE-28" value="" style="rounded=0;whiteSpace=wrap;html=1;fillColor=#808080;" parent="1" vertex="1">
                    <mxGeometry x="350.003125" y="270" width="227.37375000000003" height="160" as="geometry"/>
                </mxCell>
                <mxCell id="ecS3ZJke_SLgCDpdlSXE-29" value="A" style="html=1;" parent="1" vertex="1">
                    <mxGeometry x="374.88" y="300" width="30" height="30" as="geometry"/>
                </mxCell>
                <mxCell id="ecS3ZJke_SLgCDpdlSXE-30" value="B" style="html=1;" parent="1" vertex="1">
                    <mxGeometry x="528.695" y="300" width="30" height="30" as="geometry"/>
                </mxCell>
                <mxCell id="ecS3ZJke_SLgCDpdlSXE-31" value="" style="rounded=0;whiteSpace=wrap;html=1;fillColor=#999999;" parent="1" vertex="1">
                    <mxGeometry x="362.44" y="350" width="206.25" height="70" as="geometry"/>
                </mxCell>
                <mxCell id="ecS3ZJke_SLgCDpdlSXE-32" value="A" style="html=1;" parent="1" vertex="1">
                    <mxGeometry x="374.88" y="370" width="30" height="30" as="geometry"/>
                </mxCell>
                <mxCell id="ecS3ZJke_SLgCDpdlSXE-33" value="B" style="html=1;" parent="1" vertex="1">
                    <mxGeometry x="528.6949999999999" y="370" width="30" height="30" as="geometry"/>
                </mxCell>
                <mxCell id="ecS3ZJke_SLgCDpdlSXE-34" value="" style="endArrow=block;dashed=1;endFill=0;endSize=12;html=1;fontSize=14;entryX=0;entryY=0.5;entryDx=0;entryDy=0;exitX=1;exitY=0.5;exitDx=0;exitDy=0;" parent="1" source="ecS3ZJke_SLgCDpdlSXE-29" target="ecS3ZJke_SLgCDpdlSXE-30" edge="1">
                    <mxGeometry width="160" relative="1" as="geometry">
                        <mxPoint x="420" y="315" as="sourcePoint"/>
                        <mxPoint x="518.69" y="314.55" as="targetPoint"/>
                    </mxGeometry>
                </mxCell>
                <mxCell id="ecS3ZJke_SLgCDpdlSXE-36" value="实现&lt;br style=&quot;font-size: 10px;&quot;&gt;Implementation" style="edgeLabel;html=1;align=center;verticalAlign=middle;resizable=0;points=[];fontSize=10;" parent="ecS3ZJke_SLgCDpdlSXE-34" vertex="1" connectable="0">
                    <mxGeometry x="-0.1615" y="3" relative="1" as="geometry">
                        <mxPoint as="offset"/>
                    </mxGeometry>
                </mxCell>
                <mxCell id="ecS3ZJke_SLgCDpdlSXE-37" value="继承&lt;br&gt;Extends" style="endArrow=block;endSize=16;endFill=0;html=1;fontSize=10;entryX=0;entryY=0.5;entryDx=0;entryDy=0;exitX=1;exitY=0.5;exitDx=0;exitDy=0;" parent="1" source="ecS3ZJke_SLgCDpdlSXE-32" target="ecS3ZJke_SLgCDpdlSXE-33" edge="1">
                    <mxGeometry width="160" relative="1" as="geometry">
                        <mxPoint x="425.51" y="384.55" as="sourcePoint"/>
                        <mxPoint x="500" y="385" as="targetPoint"/>
                    </mxGeometry>
                </mxCell>
                <mxCell id="ecS3ZJke_SLgCDpdlSXE-41" value="&lt;font style=&quot;font-size: 14px&quot;&gt;对象和类之间的关系：从弱到强&lt;br&gt;&lt;/font&gt;" style="rounded=0;whiteSpace=wrap;html=1;glass=0;fontSize=10;fillColor=#999999;" parent="1" vertex="1">
                    <mxGeometry x="190" y="550" width="230" height="40" as="geometry"/>
                </mxCell>
                <mxCell id="ecS3ZJke_SLgCDpdlSXE-42" value="&lt;ul&gt;&lt;li&gt;&lt;font color=&quot;#ff33ff&quot;&gt;&lt;b&gt;依赖&lt;/b&gt;&lt;/font&gt;：对类 B 进行修改会影响到类 A 。&lt;/li&gt;&lt;li&gt;&lt;font color=&quot;#ff33ff&quot;&gt;&lt;b&gt;关联&lt;/b&gt;&lt;/font&gt;：对象 A 知道对象 B。类 A 依赖于类 B 。&lt;/li&gt;&lt;li&gt;&lt;b&gt;&lt;font color=&quot;#ff33ff&quot;&gt;聚合&lt;/font&gt;&lt;/b&gt;：对象 A 知道对象 B 且由 B 构成。类 A 依赖于类 B。&lt;/li&gt;&lt;li&gt;&lt;font color=&quot;#ff33ff&quot;&gt;&lt;b&gt;组合&lt;/b&gt;&lt;/font&gt;：对象 A 知道对象 B、由 B 构成而且管理着 B 的声明周期。类 A 依赖于类 B 。&lt;/li&gt;&lt;li&gt;&lt;b&gt;&lt;font color=&quot;#ff33ff&quot;&gt;实现&lt;/font&gt;&lt;/b&gt;：类 A 定义的方法由接口 B 声明。对象 A 可被视为对象 B。类A 依赖于类B。&lt;/li&gt;&lt;li&gt;&lt;b&gt;&lt;font color=&quot;#ff33ff&quot;&gt;继承&lt;/font&gt;&lt;/b&gt;： 类 A 继承类 B 的接口和实现，但是可以对其进行扩展。对象 A 可被视为对象 B。类 A 依赖于类 B。&lt;/li&gt;&lt;/ul&gt;" style="text;html=1;strokeColor=none;fillColor=none;align=left;verticalAlign=middle;whiteSpace=wrap;rounded=0;glass=0;fontSize=17;" parent="1" vertex="1">
                    <mxGeometry x="30" y="610" width="550" height="240" as="geometry"/>
                </mxCell>
                <mxCell id="3" value="" style="group" connectable="0" vertex="1" parent="1">
                    <mxGeometry x="-413" y="155" width="330" height="340" as="geometry"/>
                </mxCell>
                <mxCell id="4" value="" style="rounded=0;whiteSpace=wrap;html=1;fontFamily=Helvetica;fontSize=20;fontColor=default;startSize=36;strokeColor=default;fillColor=default;gradientColor=none;" vertex="1" parent="3">
                    <mxGeometry width="330" height="340" as="geometry"/>
                </mxCell>
                <mxCell id="5" value="属性说明" style="text;html=1;strokeColor=none;fillColor=none;align=center;verticalAlign=middle;whiteSpace=wrap;rounded=0;fontFamily=Helvetica;fontSize=20;fontColor=default;startSize=36;" vertex="1" parent="3">
                    <mxGeometry x="102.49999999999997" y="27.200000000000003" width="124.99999999999999" height="40.800000000000004" as="geometry"/>
                </mxCell>
                <mxCell id="6" value="&lt;ul&gt;&lt;li&gt;&quot;+&quot; 表示 public;&lt;/li&gt;&lt;li&gt;&quot;-&quot; 表示 private;&lt;/li&gt;&lt;li&gt;&quot;#&quot; 表示 protected;&lt;/li&gt;&lt;li&gt;不带符号表示 default;&lt;/li&gt;&lt;li&gt;... 表示更多变量或方法&lt;/li&gt;&lt;/ul&gt;" style="text;strokeColor=none;fillColor=none;html=1;whiteSpace=wrap;verticalAlign=middle;overflow=hidden;rounded=0;fontFamily=Helvetica;fontSize=20;fontColor=default;startSize=36;" vertex="1" parent="3">
                    <mxGeometry x="19.999999999999996" y="81.60000000000001" width="259.99999999999994" height="217.60000000000002" as="geometry"/>
                </mxCell>
            </root>
        </mxGraphModel>
    </diagram>
    <diagram id="EEXhQEklDKYkyx9e1LIt" name="第 2 页">
        <mxGraphModel dx="669" dy="627" grid="1" gridSize="10" guides="1" tooltips="1" connect="1" arrows="1" fold="1" page="1" pageScale="1" pageWidth="827" pageHeight="1169" math="0" shadow="0">
            <root>
                <mxCell id="xSZlfqKUXrb9UhfvRvR8-0"/>
                <mxCell id="xSZlfqKUXrb9UhfvRvR8-1" parent="xSZlfqKUXrb9UhfvRvR8-0"/>
            </root>
        </mxGraphModel>
    </diagram>
</mxfile>